<mxfile host="app.diagrams.net" modified="2024-03-04T12:10:02.661Z" agent="Mozilla/5.0 (Windows NT 10.0; Win64; x64) AppleWebKit/537.36 (KHTML, like Gecko) Chrome/122.0.0.0 Safari/537.36" etag="bZ5-4Zkr6NpAkUJOpGQx" version="24.0.1" type="device">
  <diagram id="C5RBs43oDa-KdzZeNtuy" name="Page-1">
    <mxGraphModel dx="660" dy="913" grid="1" gridSize="10" guides="1" tooltips="1" connect="1" arrows="1" fold="1" page="1" pageScale="1" pageWidth="827" pageHeight="1169" math="0" shadow="0">
      <root>
        <mxCell id="WIyWlLk6GJQsqaUBKTNV-0" />
        <mxCell id="WIyWlLk6GJQsqaUBKTNV-1" parent="WIyWlLk6GJQsqaUBKTNV-0" />
        <mxCell id="zkfFHV4jXpPFQw0GAbJ--0" value="Notifier" style="swimlane;fontStyle=0;align=center;verticalAlign=top;childLayout=stackLayout;horizontal=1;startSize=26;horizontalStack=0;resizeParent=1;resizeLast=0;collapsible=1;marginBottom=0;rounded=0;shadow=0;strokeWidth=1;" parent="WIyWlLk6GJQsqaUBKTNV-1" vertex="1">
          <mxGeometry x="220" y="120" width="160" height="34" as="geometry">
            <mxRectangle x="230" y="140" width="160" height="26" as="alternateBounds" />
          </mxGeometry>
        </mxCell>
        <mxCell id="zkfFHV4jXpPFQw0GAbJ--4" value="" style="line;html=1;strokeWidth=1;align=left;verticalAlign=middle;spacingTop=-1;spacingLeft=3;spacingRight=3;rotatable=0;labelPosition=right;points=[];portConstraint=eastwest;" parent="zkfFHV4jXpPFQw0GAbJ--0" vertex="1">
          <mxGeometry y="26" width="160" height="8" as="geometry" />
        </mxCell>
        <mxCell id="DmE8_Ru2y6Ek7n-amg94-8" value="SMS + Line&#xa;Notifier" style="swimlane;fontStyle=0;align=center;verticalAlign=top;childLayout=stackLayout;horizontal=1;startSize=40;horizontalStack=0;resizeParent=1;resizeLast=0;collapsible=1;marginBottom=0;rounded=0;shadow=0;strokeWidth=1;" vertex="1" parent="WIyWlLk6GJQsqaUBKTNV-1">
          <mxGeometry x="40" y="300" width="110" height="50" as="geometry">
            <mxRectangle x="230" y="140" width="160" height="26" as="alternateBounds" />
          </mxGeometry>
        </mxCell>
        <mxCell id="DmE8_Ru2y6Ek7n-amg94-9" value="" style="line;html=1;strokeWidth=1;align=left;verticalAlign=middle;spacingTop=-1;spacingLeft=3;spacingRight=3;rotatable=0;labelPosition=right;points=[];portConstraint=eastwest;" vertex="1" parent="DmE8_Ru2y6Ek7n-amg94-8">
          <mxGeometry y="40" width="110" height="10" as="geometry" />
        </mxCell>
        <mxCell id="DmE8_Ru2y6Ek7n-amg94-10" value="SMS&#xa;Notifier" style="swimlane;fontStyle=0;align=center;verticalAlign=top;childLayout=stackLayout;horizontal=1;startSize=40;horizontalStack=0;resizeParent=1;resizeLast=0;collapsible=1;marginBottom=0;rounded=0;shadow=0;strokeWidth=1;" vertex="1" parent="WIyWlLk6GJQsqaUBKTNV-1">
          <mxGeometry x="120" y="220" width="110" height="50" as="geometry">
            <mxRectangle x="230" y="140" width="160" height="26" as="alternateBounds" />
          </mxGeometry>
        </mxCell>
        <mxCell id="DmE8_Ru2y6Ek7n-amg94-11" value="" style="line;html=1;strokeWidth=1;align=left;verticalAlign=middle;spacingTop=-1;spacingLeft=3;spacingRight=3;rotatable=0;labelPosition=right;points=[];portConstraint=eastwest;" vertex="1" parent="DmE8_Ru2y6Ek7n-amg94-10">
          <mxGeometry y="40" width="110" height="10" as="geometry" />
        </mxCell>
        <mxCell id="DmE8_Ru2y6Ek7n-amg94-12" value="Line&#xa;Notifier" style="swimlane;fontStyle=0;align=center;verticalAlign=top;childLayout=stackLayout;horizontal=1;startSize=40;horizontalStack=0;resizeParent=1;resizeLast=0;collapsible=1;marginBottom=0;rounded=0;shadow=0;strokeWidth=1;" vertex="1" parent="WIyWlLk6GJQsqaUBKTNV-1">
          <mxGeometry x="250" y="220" width="110" height="50" as="geometry">
            <mxRectangle x="230" y="140" width="160" height="26" as="alternateBounds" />
          </mxGeometry>
        </mxCell>
        <mxCell id="DmE8_Ru2y6Ek7n-amg94-13" value="" style="line;html=1;strokeWidth=1;align=left;verticalAlign=middle;spacingTop=-1;spacingLeft=3;spacingRight=3;rotatable=0;labelPosition=right;points=[];portConstraint=eastwest;" vertex="1" parent="DmE8_Ru2y6Ek7n-amg94-12">
          <mxGeometry y="40" width="110" height="10" as="geometry" />
        </mxCell>
        <mxCell id="DmE8_Ru2y6Ek7n-amg94-14" value="SMS + Line + FB&#xa;Notifier" style="swimlane;fontStyle=0;align=center;verticalAlign=top;childLayout=stackLayout;horizontal=1;startSize=40;horizontalStack=0;resizeParent=1;resizeLast=0;collapsible=1;marginBottom=0;rounded=0;shadow=0;strokeWidth=1;" vertex="1" parent="WIyWlLk6GJQsqaUBKTNV-1">
          <mxGeometry x="320" y="300" width="110" height="50" as="geometry">
            <mxRectangle x="230" y="140" width="160" height="26" as="alternateBounds" />
          </mxGeometry>
        </mxCell>
        <mxCell id="DmE8_Ru2y6Ek7n-amg94-15" value="" style="line;html=1;strokeWidth=1;align=left;verticalAlign=middle;spacingTop=-1;spacingLeft=3;spacingRight=3;rotatable=0;labelPosition=right;points=[];portConstraint=eastwest;" vertex="1" parent="DmE8_Ru2y6Ek7n-amg94-14">
          <mxGeometry y="40" width="110" height="10" as="geometry" />
        </mxCell>
        <mxCell id="DmE8_Ru2y6Ek7n-amg94-16" value="" style="endArrow=block;endFill=0;endSize=12;html=1;rounded=0;edgeStyle=elbowEdgeStyle;elbow=vertical;" edge="1" parent="WIyWlLk6GJQsqaUBKTNV-1" source="DmE8_Ru2y6Ek7n-amg94-8" target="zkfFHV4jXpPFQw0GAbJ--0">
          <mxGeometry width="160" relative="1" as="geometry">
            <mxPoint x="120" y="190" as="sourcePoint" />
            <mxPoint x="280" y="190" as="targetPoint" />
            <Array as="points">
              <mxPoint x="210" y="190" />
            </Array>
          </mxGeometry>
        </mxCell>
        <mxCell id="DmE8_Ru2y6Ek7n-amg94-17" value="" style="endArrow=block;endFill=0;endSize=12;html=1;rounded=0;edgeStyle=elbowEdgeStyle;elbow=vertical;exitX=0.5;exitY=0;exitDx=0;exitDy=0;" edge="1" parent="WIyWlLk6GJQsqaUBKTNV-1" source="DmE8_Ru2y6Ek7n-amg94-10" target="zkfFHV4jXpPFQw0GAbJ--0">
          <mxGeometry width="160" relative="1" as="geometry">
            <mxPoint x="175" y="210" as="sourcePoint" />
            <mxPoint x="408" y="140" as="targetPoint" />
            <Array as="points">
              <mxPoint x="205" y="190" />
            </Array>
          </mxGeometry>
        </mxCell>
        <mxCell id="DmE8_Ru2y6Ek7n-amg94-18" value="" style="endArrow=block;endFill=0;endSize=12;html=1;rounded=0;edgeStyle=elbowEdgeStyle;elbow=vertical;" edge="1" parent="WIyWlLk6GJQsqaUBKTNV-1" source="DmE8_Ru2y6Ek7n-amg94-12" target="zkfFHV4jXpPFQw0GAbJ--0">
          <mxGeometry width="160" relative="1" as="geometry">
            <mxPoint x="186" y="230" as="sourcePoint" />
            <mxPoint x="289" y="174" as="targetPoint" />
            <Array as="points">
              <mxPoint x="300" y="190" />
            </Array>
          </mxGeometry>
        </mxCell>
        <mxCell id="DmE8_Ru2y6Ek7n-amg94-31" value="SMS + FB&#xa;Notifier" style="swimlane;fontStyle=0;align=center;verticalAlign=top;childLayout=stackLayout;horizontal=1;startSize=40;horizontalStack=0;resizeParent=1;resizeLast=0;collapsible=1;marginBottom=0;rounded=0;shadow=0;strokeWidth=1;" vertex="1" parent="WIyWlLk6GJQsqaUBKTNV-1">
          <mxGeometry x="180" y="300" width="110" height="50" as="geometry">
            <mxRectangle x="230" y="140" width="160" height="26" as="alternateBounds" />
          </mxGeometry>
        </mxCell>
        <mxCell id="DmE8_Ru2y6Ek7n-amg94-32" value="" style="line;html=1;strokeWidth=1;align=left;verticalAlign=middle;spacingTop=-1;spacingLeft=3;spacingRight=3;rotatable=0;labelPosition=right;points=[];portConstraint=eastwest;" vertex="1" parent="DmE8_Ru2y6Ek7n-amg94-31">
          <mxGeometry y="40" width="110" height="10" as="geometry" />
        </mxCell>
        <mxCell id="DmE8_Ru2y6Ek7n-amg94-33" value="" style="endArrow=block;endFill=0;endSize=12;html=1;rounded=0;edgeStyle=elbowEdgeStyle;elbow=vertical;" edge="1" parent="WIyWlLk6GJQsqaUBKTNV-1">
          <mxGeometry width="160" relative="1" as="geometry">
            <mxPoint x="240" y="300" as="sourcePoint" />
            <mxPoint x="300.04" y="154.15" as="targetPoint" />
            <Array as="points">
              <mxPoint x="300.04" y="190.15" />
            </Array>
          </mxGeometry>
        </mxCell>
        <mxCell id="DmE8_Ru2y6Ek7n-amg94-34" value="FB&#xa;Notifier" style="swimlane;fontStyle=0;align=center;verticalAlign=top;childLayout=stackLayout;horizontal=1;startSize=40;horizontalStack=0;resizeParent=1;resizeLast=0;collapsible=1;marginBottom=0;rounded=0;shadow=0;strokeWidth=1;" vertex="1" parent="WIyWlLk6GJQsqaUBKTNV-1">
          <mxGeometry x="380" y="220" width="110" height="50" as="geometry">
            <mxRectangle x="230" y="140" width="160" height="26" as="alternateBounds" />
          </mxGeometry>
        </mxCell>
        <mxCell id="DmE8_Ru2y6Ek7n-amg94-35" value="" style="line;html=1;strokeWidth=1;align=left;verticalAlign=middle;spacingTop=-1;spacingLeft=3;spacingRight=3;rotatable=0;labelPosition=right;points=[];portConstraint=eastwest;" vertex="1" parent="DmE8_Ru2y6Ek7n-amg94-34">
          <mxGeometry y="40" width="110" height="10" as="geometry" />
        </mxCell>
        <mxCell id="DmE8_Ru2y6Ek7n-amg94-36" value="Line + FB&#xa;Notifier" style="swimlane;fontStyle=0;align=center;verticalAlign=top;childLayout=stackLayout;horizontal=1;startSize=40;horizontalStack=0;resizeParent=1;resizeLast=0;collapsible=1;marginBottom=0;rounded=0;shadow=0;strokeWidth=1;" vertex="1" parent="WIyWlLk6GJQsqaUBKTNV-1">
          <mxGeometry x="460" y="300" width="110" height="50" as="geometry">
            <mxRectangle x="230" y="140" width="160" height="26" as="alternateBounds" />
          </mxGeometry>
        </mxCell>
        <mxCell id="DmE8_Ru2y6Ek7n-amg94-37" value="" style="line;html=1;strokeWidth=1;align=left;verticalAlign=middle;spacingTop=-1;spacingLeft=3;spacingRight=3;rotatable=0;labelPosition=right;points=[];portConstraint=eastwest;" vertex="1" parent="DmE8_Ru2y6Ek7n-amg94-36">
          <mxGeometry y="40" width="110" height="10" as="geometry" />
        </mxCell>
        <mxCell id="DmE8_Ru2y6Ek7n-amg94-38" value="" style="endArrow=block;endFill=0;endSize=12;html=1;rounded=0;edgeStyle=elbowEdgeStyle;elbow=vertical;exitX=0.5;exitY=0;exitDx=0;exitDy=0;" edge="1" parent="WIyWlLk6GJQsqaUBKTNV-1" source="DmE8_Ru2y6Ek7n-amg94-34">
          <mxGeometry width="160" relative="1" as="geometry">
            <mxPoint x="454.5" y="220" as="sourcePoint" />
            <mxPoint x="299.5" y="154" as="targetPoint" />
            <Array as="points">
              <mxPoint x="299.5" y="190" />
            </Array>
          </mxGeometry>
        </mxCell>
        <mxCell id="DmE8_Ru2y6Ek7n-amg94-39" value="" style="endArrow=block;endFill=0;endSize=12;html=1;rounded=0;edgeStyle=elbowEdgeStyle;elbow=vertical;exitX=0.5;exitY=0;exitDx=0;exitDy=0;" edge="1" parent="WIyWlLk6GJQsqaUBKTNV-1" source="DmE8_Ru2y6Ek7n-amg94-36">
          <mxGeometry width="160" relative="1" as="geometry">
            <mxPoint x="436" y="230" as="sourcePoint" />
            <mxPoint x="300.5" y="154.00000000000006" as="targetPoint" />
            <Array as="points">
              <mxPoint x="370" y="190" />
            </Array>
          </mxGeometry>
        </mxCell>
        <mxCell id="DmE8_Ru2y6Ek7n-amg94-40" value="" style="endArrow=block;endFill=0;endSize=12;html=1;rounded=0;edgeStyle=elbowEdgeStyle;elbow=vertical;" edge="1" parent="WIyWlLk6GJQsqaUBKTNV-1">
          <mxGeometry width="160" relative="1" as="geometry">
            <mxPoint x="370" y="300" as="sourcePoint" />
            <mxPoint x="299.5" y="154" as="targetPoint" />
            <Array as="points">
              <mxPoint x="370" y="190" />
            </Array>
          </mxGeometry>
        </mxCell>
      </root>
    </mxGraphModel>
  </diagram>
</mxfile>
